<?xml version="1.0" encoding="utf-8"?>
<!-- This file was generated by dvisvgm 3.6 -->
<svg xmlns="http://www.w3.org/2000/svg" xmlns:xlink="http://www.w3.org/1999/xlink" version="1.1" width="92.075" height="18.678" viewBox="-.500002 -13.561404 69.315263 14.061405">
<defs>
<path id="g2-49" d="M2.929016-6.37609C2.929016-6.615193 2.929016-6.635118 2.699875-6.635118C2.082192-5.997509 1.205479-5.997509 .886675-5.997509V-5.688667C1.085928-5.688667 1.673724-5.688667 2.191781-5.947696V-.787049C2.191781-.428394 2.161893-.308842 1.265255-.308842H.946451V0C1.295143-.029888 2.161893-.029888 2.560399-.029888S3.825654-.029888 4.174346 0V-.308842H3.855542C2.958904-.308842 2.929016-.418431 2.929016-.787049V-6.37609Z"/>
<path id="g2-50" d="M1.265255-.767123L2.321295-1.793275C3.875467-3.16812 4.473225-3.706102 4.473225-4.702366C4.473225-5.838107 3.576588-6.635118 2.361146-6.635118C1.235367-6.635118 .498132-5.718555 .498132-4.83188C.498132-4.273973 .996264-4.273973 1.026152-4.273973C1.195517-4.273973 1.544209-4.393524 1.544209-4.801993C1.544209-5.061021 1.364882-5.32005 1.016189-5.32005C.936488-5.32005 .916563-5.32005 .886675-5.310087C1.115816-5.957659 1.653798-6.326276 2.231631-6.326276C3.138232-6.326276 3.566625-5.519303 3.566625-4.702366C3.566625-3.905355 3.068493-3.118306 2.520548-2.500623L.607721-.368618C.498132-.259029 .498132-.239103 .498132 0H4.194271L4.473225-1.733499H4.224159C4.174346-1.43462 4.104608-.996264 4.004981-.846824C3.935243-.767123 3.277709-.767123 3.058531-.767123H1.265255Z"/>
</defs>
<g id="page13">
<g stroke-miterlimit="10" transform="matrix(.996264 0 0 -.996264 5.811185 -6.530701)" fill="#b21877" stroke="#b21877" stroke-width="0.4">
<g transform="matrix(1.00375 0 0 -1.00375 -8.332977 -9.777401)" stroke="none" fill="#b21877">
<use x="5.811185" y="-6.530701" xlink:href="#g2-49"/>
</g>
<g transform="matrix(1.00375 0 0 -1.00375 48.572513 -9.777401)" stroke="none" fill="#b21877">
<use x="5.811185" y="-6.530701" xlink:href="#g2-50"/>
</g>
<g stroke-width="0.8">
<path d="M6.74298 0H50.1625" fill="none"/>
<g transform="matrix(-1 0 0 -1 6.74298 0)" stroke-width="0.64" stroke-dasharray="none" stroke-dashoffset="0.0" stroke-linecap="round" stroke-linejoin="round">
 <path d="M-1.55997 2.07996C-1.42996 1.29997 0 .12999 .38998 0C0-.12999-1.42996-1.29997-1.55997-2.07996" fill="none"/>
 </g>
<g transform="translate(50.1625)" stroke-width="0.64" stroke-dasharray="none" stroke-dashoffset="0.0" stroke-linecap="round" stroke-linejoin="round">
 <path d="M-1.55997 2.07996C-1.42996 1.29997 0 .12999 .38998 0C0-.12999-1.42996-1.29997-1.55997-2.07996" fill="none"/>
 </g>
</g>
</g>
</g>
</svg>
